<svg width="24" height="24" viewBox="0 0 24 24" fill="none" xmlns="http://www.w3.org/2000/svg">
<path d="M20.1766 4.316L22.0766 2.416L20.6646 1L18.7736 2.891C17.4082 1.80825 15.7386 1.17916 13.9983 1.09166C12.2579 1.00417 10.5336 1.46264 9.06657 2.403L2.30457 6.152C1.94471 6.39003 1.64229 6.70511 1.4192 7.07441C1.19611 7.44371 1.05793 7.858 1.01467 8.28728C0.971404 8.71656 1.02414 9.15009 1.16906 9.55648C1.31397 9.96287 1.54744 10.332 1.85257 10.637L12.4366 21.225C12.705 21.4963 13.0246 21.7118 13.3768 21.8588C13.729 22.0059 14.1069 22.0818 14.4886 22.082C14.6139 22.0818 14.7391 22.0741 14.8636 22.059C15.3026 22.0055 15.7234 21.8515 16.0933 21.6091C16.4632 21.3666 16.7723 21.0422 16.9966 20.661L20.9246 13.675C21.7401 12.2161 22.1044 10.548 21.9712 8.88195C21.8381 7.2159 21.2135 5.62683 20.1766 4.316ZM2.99657 17.365C2.99069 18.1843 3.19798 18.9911 3.59807 19.7061C3.99816 20.4211 4.57731 21.0198 5.27866 21.4434C5.98001 21.867 6.77946 22.101 7.59853 22.1223C8.4176 22.1436 9.22813 21.9515 9.95057 21.565L3.55657 15.165C3.1934 15.8417 3.00115 16.597 2.99657 17.365Z" fill="#8B9399"/>
</svg>
