<svg width="39" height="38" viewBox="0 0 39 38" fill="none" xmlns="http://www.w3.org/2000/svg">
<g clip-path="url(#clip0_241_255)">
<path d="M0.354828 14.4793C-0.185089 13.7906 -0.0631719 12.7963 0.625578 12.2563L14.1393 1.68126C17.0115 -0.565488 21.0237 -0.567071 23.8958 1.68126L37.4096 12.2563C38.0983 12.7947 38.2202 13.7906 37.6803 14.4793C37.3684 14.8783 36.9029 15.0873 36.4327 15.0873C36.0922 15.0873 35.7471 14.9781 35.4589 14.7517L21.9452 4.17659C20.2225 2.82759 17.8142 2.82759 16.0916 4.17659L2.57624 14.7501C1.88591 15.2884 0.893161 15.1649 0.354828 14.4793ZM5.93449 28.5552C2.505 29.4909 0.0175781 32.7969 0.0175781 36.4164C0.0175781 37.292 0.725328 37.9998 1.60091 37.9998C2.47649 37.9998 3.18424 37.292 3.18424 36.4164C3.18424 34.233 4.72483 32.1668 6.76733 31.611C7.61125 31.3798 8.10999 30.5106 7.87883 29.6667C7.64766 28.8212 6.77208 28.3256 5.93449 28.5552ZM32.0991 28.5552C31.2662 28.324 30.3859 28.8212 30.1547 29.6667C29.9236 30.509 30.4223 31.3798 31.2662 31.611C33.3087 32.1683 34.8493 34.233 34.8493 36.4164C34.8493 37.292 35.5571 37.9998 36.4327 37.9998C37.3082 37.9998 38.016 37.292 38.016 36.4164C38.016 32.7969 35.5286 29.4909 32.0991 28.5552ZM7.141 17.4164C4.95441 17.4164 3.18266 19.1882 3.18266 21.3748C3.18266 23.5613 4.95441 25.3331 7.141 25.3331C9.32758 25.3331 11.0993 23.5613 11.0993 21.3748C11.0993 19.1882 9.32758 17.4164 7.141 17.4164ZM34.8493 21.3748C34.8493 19.1882 33.0776 17.4164 30.891 17.4164C28.7044 17.4164 26.9327 19.1882 26.9327 21.3748C26.9327 23.5613 28.7044 25.3331 30.891 25.3331C33.0776 25.3331 34.8493 23.5613 34.8493 21.3748ZM19.016 12.6664C16.8294 12.6664 15.0577 14.4382 15.0577 16.6248C15.0577 18.8113 16.8294 20.5831 19.016 20.5831C21.2026 20.5831 22.9743 18.8113 22.9743 16.6248C22.9743 14.4382 21.2026 12.6664 19.016 12.6664ZM19.016 23.7498C14.6507 23.7498 11.0993 27.3012 11.0993 31.6664V36.4164C11.0993 37.292 11.8071 37.9998 12.6827 37.9998C13.5582 37.9998 14.266 37.292 14.266 36.4164V31.6664C14.266 29.0476 16.3972 26.9164 19.016 26.9164C21.6348 26.9164 23.766 29.0476 23.766 31.6664V36.4164C23.766 37.292 24.4737 37.9998 25.3493 37.9998C26.2249 37.9998 26.9327 37.292 26.9327 36.4164V31.6664C26.9327 27.3012 23.3812 23.7498 19.016 23.7498Z" fill="#CB003F"/>
<g clip-path="url(#clip1_241_255)">
<path d="M7.141 17.4164C4.95441 17.4164 3.18266 19.1882 3.18266 21.3748C3.18266 23.5613 4.95441 25.3331 7.141 25.3331C9.32758 25.3331 11.0993 23.5613 11.0993 21.3748C11.0993 19.1882 9.32758 17.4164 7.141 17.4164ZM34.8493 21.3748C34.8493 19.1882 33.0776 17.4164 30.891 17.4164C28.7044 17.4164 26.9327 19.1882 26.9327 21.3748C26.9327 23.5613 28.7044 25.3331 30.891 25.3331C33.0776 25.3331 34.8493 23.5613 34.8493 21.3748ZM19.016 12.6664C16.8294 12.6664 15.0577 14.4382 15.0577 16.6248C15.0577 18.8113 16.8294 20.5831 19.016 20.5831C21.2026 20.5831 22.9743 18.8113 22.9743 16.6248C22.9743 14.4382 21.2026 12.6664 19.016 12.6664Z" fill="#AD0036"/>
<g clip-path="url(#clip2_241_255)">
<path d="M0.354828 14.4793C-0.185089 13.7906 -0.0631719 12.7963 0.625578 12.2563L14.1393 1.68126C17.0115 -0.565488 21.0237 -0.567071 23.8958 1.68126L37.4096 12.2563C38.0983 12.7947 38.2202 13.7906 37.6803 14.4793C37.3684 14.8783 36.9029 15.0873 36.4327 15.0873C36.0922 15.0873 35.7471 14.9781 35.4589 14.7517L21.9452 4.17659C20.2225 2.82759 17.8142 2.82759 16.0916 4.17659L2.57624 14.7501C1.88591 15.2884 0.893161 15.1649 0.354828 14.4793Z" fill="#0B8AA0"/>
</g>
</g>
</g>
<defs>
<clipPath id="clip0_241_255">
<rect width="38" height="38" fill="white" transform="translate(0.0175781)"/>
</clipPath>
<clipPath id="clip1_241_255">
<rect width="38" height="38" fill="white" transform="translate(0.0175781)"/>
</clipPath>
<clipPath id="clip2_241_255">
<rect width="38" height="38" fill="white" transform="translate(0.0175781)"/>
</clipPath>
</defs>
</svg>
