<svg width="25" height="24" viewBox="0 0 25 24" fill="none" xmlns="http://www.w3.org/2000/svg">
<path d="M12.5 14.9932C10.8432 14.9932 9.5 16.3363 9.5 17.9932V23.9932H15.5V17.9932C15.5 16.3363 14.1568 14.9932 12.5 14.9932Z" fill="#9FA3A9"/>
<path d="M17.5 17.9929V23.9929H21.5C23.1568 23.9929 24.5 22.6497 24.5 20.9929V11.8719C24.5002 11.3524 24.2983 10.8532 23.937 10.4799L15.439 1.29285C13.9396 -0.329491 11.4089 -0.4291 9.78655 1.07034C9.70949 1.14159 9.63523 1.21579 9.56403 1.29285L1.08102 10.4769C0.708734 10.8517 0.499859 11.3586 0.5 11.8869V20.9929C0.5 22.6497 1.84316 23.9929 3.5 23.9929H7.49998V17.9929C7.51869 15.2661 9.72027 13.0393 12.3784 12.9752C15.1255 12.9089 17.4791 15.1736 17.5 17.9929Z" fill="#9FA8A9"/>
<path d="M12.5 14.9932C10.8432 14.9932 9.5 16.3363 9.5 17.9932V23.9932H15.5V17.9932C15.5 16.3363 14.1568 14.9932 12.5 14.9932Z" fill="#9FA3A9"/>
</svg>
