<svg width="39" height="38" viewBox="0 0 39 38" fill="none" xmlns="http://www.w3.org/2000/svg">
<g clip-path="url(#clip0_241_172)">
<path d="M14.1835 4.75C14.1835 2.12642 16.3479 0 19.019 0C21.6901 0 23.6835 2.12642 23.6835 4.75C23.6835 7.37358 21.6885 9.5 19.019 9.5C16.3495 9.5 14.1835 7.37358 14.1835 4.75ZM37.3002 24.7998L31.2645 20.8525L29.1935 17.48C27.3695 14.5113 24.0714 12.6651 20.5865 12.6651H17.689C14.0283 12.6651 10.6463 14.6522 8.86508 17.8489L6.74183 21.6616L0.734659 25.5914C0.00315886 26.0696 -0.202674 27.0513 0.275492 27.7828C0.579492 28.2467 1.08616 28.5 1.60233 28.5C1.89999 28.5 2.19924 28.4161 2.46683 28.2419L8.80016 24.1015C9.01391 23.9622 9.19283 23.7706 9.31633 23.5473L11.6296 19.3927C11.9209 18.8686 12.2787 18.3967 12.6825 17.9756V29.0779L4.55999 32.9001C3.46908 33.5239 2.95291 34.7573 3.27591 35.9702C3.59891 37.183 4.65816 38 5.91533 38H11.0992C11.9732 38 12.6825 37.2907 12.6825 36.4167C12.6825 35.5427 11.9732 34.8333 11.0992 34.8333H7.87866L14.9387 31.5163C15.4945 31.255 15.8492 30.6961 15.8492 30.0833V16.0819C16.4397 15.9188 17.0572 15.8333 17.6874 15.8333H20.5849C21.128 15.8333 21.6632 15.9062 22.1825 16.0312V30.0833C22.1825 30.6977 22.5372 31.255 23.0929 31.5163L30.1625 34.8333H17.4341C16.5601 34.8333 15.8507 35.5427 15.8507 36.4167C15.8507 37.2907 16.5601 38 17.4341 38H32.1179C33.3735 38 34.4343 37.1846 34.7573 35.9702C35.0803 34.7558 34.5642 33.5223 33.3608 32.8399L25.3507 29.0763V17.7365C25.7877 18.1482 26.1757 18.6168 26.4955 19.1378L28.7517 22.8127C28.8737 23.0106 29.0383 23.1816 29.2347 23.3083L35.568 27.4487C36.3011 27.9284 37.2812 27.7226 37.7593 26.9895C38.2375 26.2564 38.0317 25.2763 37.3002 24.7982V24.7998Z" fill="#AD0036"/>
<path d="M14.1835 4.75C14.1835 2.12642 16.3479 0 19.019 0C21.6901 0 23.6835 2.12642 23.6835 4.75C23.6835 7.37358 21.6885 9.5 19.019 9.5C16.3495 9.5 14.1835 7.37358 14.1835 4.75Z" fill="#0B8AA0"/>
</g>
<defs>
<clipPath id="clip0_241_172">
<rect width="38" height="38" fill="white" transform="translate(0.0175781)"/>
</clipPath>
</defs>
</svg>
