<svg width="39" height="38" viewBox="0 0 39 38" fill="none" xmlns="http://www.w3.org/2000/svg">
<path d="M38.6963 6.88683C38.6044 7.23513 38.5292 7.59193 38.4206 7.94872C38.1115 8.95385 37.5567 9.86285 36.8081 10.5907L27.309 20.2581C27.1085 20.462 27.0082 20.496 26.7827 20.2581C24.1315 17.551 21.4719 14.8467 18.804 12.1453C18.5868 11.9244 18.6119 11.814 18.804 11.6101C22.0038 8.38197 25.1786 5.13684 28.345 1.90021C29.0291 1.16562 29.8826 0.616145 30.8283 0.301548C31.7739 -0.0130491 32.7818 -0.0828322 33.7606 0.0985179C34.7395 0.279868 35.6584 0.706623 36.4342 1.34014C37.2099 1.97365 37.818 2.79392 38.2034 3.72666C38.4373 4.24486 38.5125 4.81403 38.6963 5.34922V6.88683ZM35.3544 7.38804C35.3356 7.27203 35.287 7.16309 35.2137 7.07214C35.1404 6.9812 35.0449 6.91143 34.9367 6.86984C34.811 6.80747 34.6681 6.79032 34.5316 6.82118C34.395 6.85204 34.2727 6.92909 34.1848 7.03974L26.8996 14.4475C26.8325 14.5093 26.7785 14.5843 26.7408 14.668C26.7031 14.7517 26.6825 14.8423 26.6802 14.9344C26.678 15.0264 26.6942 15.1179 26.7278 15.2034C26.7614 15.2889 26.8118 15.3665 26.8758 15.4316C26.9398 15.4967 27.0162 15.5479 27.1002 15.5821C27.1843 15.6163 27.2743 15.6328 27.3648 15.6305C27.4554 15.6282 27.5445 15.6073 27.6268 15.5689C27.7091 15.5306 27.7829 15.4756 27.8437 15.4074L35.1289 8.00818C35.2127 7.93016 35.2781 7.83382 35.3201 7.72641C35.362 7.619 35.3795 7.50331 35.3712 7.38804H35.3544Z" fill="#AD0036"/>
<path d="M0.0230809 11.8309C0.066104 10.7122 0.425543 9.62997 1.0583 8.71385C1.69105 7.79773 2.57025 7.08664 3.59048 6.66585C4.62778 6.16672 5.78755 5.9923 6.92253 6.16473C8.05751 6.33716 9.1165 6.84866 9.96501 7.63429C10.1238 7.77021 10.2825 7.93162 10.4329 8.08453C13.5853 11.29 16.7378 14.4898 19.8902 17.684C20.1325 17.9303 20.1075 18.0493 19.8902 18.2786C17.2335 20.9518 14.5907 23.639 11.9618 26.3405C11.7362 26.5614 11.6276 26.5614 11.402 26.3405C8.24398 23.1378 5.06924 19.8927 1.90286 16.6646C1.27428 16.0375 0.782167 15.2833 0.458358 14.4506C0.13455 13.618 -0.0137408 12.7255 0.0230809 11.8309ZM16.3395 18.6269C16.3373 18.509 16.3082 18.3931 16.2546 18.2885C16.201 18.1838 16.1242 18.0932 16.0304 18.0238L12.3461 14.2775L7.97663 9.86C7.89037 9.75072 7.77886 9.66483 7.65204 9.60999C7.52522 9.55515 7.38703 9.53306 7.24978 9.54568C7.11653 9.56369 6.99202 9.62315 6.8933 9.71592C6.79459 9.80869 6.72651 9.93023 6.69838 10.0639C6.67272 10.1897 6.68264 10.3203 6.727 10.4406C6.77136 10.5608 6.84834 10.6659 6.94902 10.7435C9.67818 13.5186 12.4073 16.2936 15.1365 19.0687C15.1981 19.1349 15.2683 19.192 15.3454 19.2386C15.4445 19.3044 15.5596 19.3411 15.6779 19.3446C15.7963 19.3482 15.9133 19.3184 16.0161 19.2587C16.1189 19.199 16.2035 19.1116 16.2605 19.0061C16.3176 18.9006 16.345 18.7812 16.3395 18.6609V18.6269Z" fill="#0B8AA0"/>
<path d="M25.363 34.615C24.8547 34.5816 24.3779 34.3527 24.0296 33.9749C23.6812 33.597 23.4873 33.0984 23.4873 32.5805C23.4873 32.0625 23.6812 31.564 24.0296 31.1861C24.3779 30.8082 24.8547 30.5793 25.363 30.5459C25.8973 30.5503 26.4086 30.7668 26.788 31.1494C27.1673 31.5319 27.3845 32.0501 27.3932 32.5932C27.3866 33.1347 27.1692 33.6515 26.7888 34.0304C26.4083 34.4094 25.8956 34.6196 25.363 34.615Z" fill="#0B8AA0"/>
<path d="M16.7077 28.4814C16.7143 27.9459 16.9287 27.4347 17.3043 27.0592C17.6798 26.6837 18.1861 26.4743 18.7128 26.4766C19.2403 26.4877 19.7426 26.708 20.1125 27.0905C20.4825 27.473 20.6907 27.9874 20.6928 28.5239C20.7073 28.801 20.6659 29.0783 20.5709 29.3385C20.476 29.5987 20.3296 29.8363 20.1407 30.0367C19.9519 30.2371 19.7247 30.3961 19.4731 30.5037C19.2215 30.6113 18.9509 30.6653 18.678 30.6624C18.405 30.6595 18.1356 30.5997 17.8863 30.4868C17.6369 30.3738 17.413 30.2101 17.2284 30.0057C17.0438 29.8013 16.9023 29.5606 16.8127 29.2984C16.7231 29.0362 16.6874 28.7582 16.7077 28.4814Z" fill="#0B8AA0"/>
<path d="M18.679 37.9956C18.2834 37.9922 17.8977 37.8694 17.5709 37.6427C17.244 37.416 16.9908 37.0958 16.8432 36.7225C16.6957 36.3493 16.6606 35.9399 16.7422 35.5463C16.8239 35.1527 17.0187 34.7926 17.302 34.5117C17.5852 34.2309 17.9441 34.042 18.3331 33.9689C18.7222 33.8958 19.1238 33.9418 19.487 34.1012C19.8503 34.2606 20.1588 34.5261 20.3734 34.864C20.588 35.2019 20.699 35.5971 20.6924 35.9993C20.6914 36.2655 20.6382 36.5288 20.536 36.7738C20.4338 37.0189 20.2847 37.2408 20.0973 37.4266C19.9098 37.6125 19.6879 37.7585 19.4444 37.8562C19.2009 37.9539 18.9407 38.0013 18.679 37.9956Z" fill="#11B3CF"/>
<path d="M25.3372 23.1378C25.3386 23.4024 25.2871 23.6646 25.1859 23.9083C25.0846 24.1521 24.9357 24.3724 24.7482 24.5559C24.5607 24.7394 24.3386 24.8823 24.0951 24.9758C23.8517 25.0694 23.5921 25.1117 23.3321 25.1002C22.8048 25.1002 22.299 24.8872 21.9261 24.508C21.5532 24.1288 21.3437 23.6146 21.3438 23.0784C21.3544 22.5447 21.567 22.0358 21.9374 21.6576C22.3078 21.2794 22.8074 21.061 23.3321 21.048C23.6007 21.0444 23.8672 21.0963 24.1154 21.2007C24.3636 21.3051 24.5883 21.4597 24.7759 21.6552C24.9635 21.8507 25.11 22.083 25.2065 22.3378C25.303 22.5927 25.3475 22.8649 25.3372 23.1378Z" fill="#11B3CF"/>
<path d="M34.0179 31.9136C33.842 31.8969 33.6783 31.8149 33.5581 31.6833C33.4379 31.5517 33.3696 31.3796 33.3662 31.2C33.3765 31.027 33.4498 30.8642 33.5719 30.7432C33.6939 30.6223 33.8559 30.5519 34.0262 30.5459C34.1917 30.5647 34.3445 30.6448 34.4555 30.771C34.5665 30.8971 34.6279 31.0605 34.6279 31.2298C34.6279 31.399 34.5665 31.5624 34.4555 31.6885C34.3445 31.8147 34.1917 31.8948 34.0262 31.9136H34.0179Z" fill="#CB003F"/>
<path d="M24.6936 27.819C24.6851 27.9924 24.6169 28.1573 24.5007 28.2847C24.3846 28.4121 24.2281 28.4938 24.0587 28.5156C23.9698 28.5178 23.8813 28.5023 23.7984 28.4698C23.7154 28.4372 23.6396 28.3884 23.5752 28.3261C23.5108 28.2638 23.4591 28.1892 23.4231 28.1065C23.3871 28.0239 23.3674 27.9348 23.3652 27.8445C23.3836 27.6784 23.4615 27.525 23.584 27.4137C23.7065 27.3023 23.8651 27.2407 24.0294 27.2407C24.1938 27.2407 24.3523 27.3023 24.4749 27.4137C24.5974 27.525 24.6753 27.6784 24.6936 27.8445V27.819Z" fill="#CB003F"/>
<path d="M30.0151 36.6791C30.103 36.6718 30.1913 36.6836 30.2744 36.7134C30.3575 36.7433 30.4334 36.7906 30.4973 36.8523C30.5611 36.9141 30.6115 36.9888 30.645 37.0717C30.6785 37.1545 30.6945 37.2436 30.6919 37.3332C30.6898 37.5068 30.6216 37.6728 30.5016 37.7964C30.3816 37.9199 30.2193 37.9914 30.0486 37.9958C29.9574 38.0063 29.865 37.9972 29.7775 37.9689C29.69 37.9406 29.6094 37.8939 29.5409 37.8317C29.4725 37.7696 29.4177 37.6934 29.3801 37.6082C29.3426 37.523 29.3232 37.4308 29.3232 37.3374C29.3232 37.2441 29.3426 37.1518 29.3801 37.0666C29.4177 36.9814 29.4725 36.9053 29.5409 36.8431C29.6094 36.781 29.69 36.7342 29.7775 36.7059C29.865 36.6777 29.9574 36.6685 30.0486 36.6791H30.0151Z" fill="#F21359"/>
<path d="M29.3385 25.8057C29.3449 25.8951 29.3321 25.9848 29.3011 26.0687C29.27 26.1526 29.2215 26.2287 29.1587 26.2917C29.096 26.3546 29.0206 26.403 28.9377 26.4335C28.8548 26.464 28.7664 26.4759 28.6785 26.4683C28.594 26.4672 28.5106 26.4491 28.433 26.4152C28.3553 26.3813 28.285 26.3322 28.2261 26.2707C28.1671 26.2092 28.1206 26.1364 28.0893 26.0566C28.058 25.9768 28.0425 25.8916 28.0436 25.8057C28.0397 25.7165 28.0546 25.6276 28.0871 25.5447C28.1197 25.4619 28.1693 25.387 28.2325 25.3251C28.2957 25.2632 28.3712 25.2158 28.4538 25.1858C28.5365 25.1559 28.6245 25.1442 28.7119 25.1515C28.7966 25.1477 28.8812 25.1622 28.96 25.1939C29.0389 25.2257 29.1102 25.274 29.1694 25.3358C29.2286 25.3976 29.2742 25.4714 29.3034 25.5523C29.3325 25.6333 29.3445 25.7196 29.3385 25.8057Z" fill="#AD0036"/>
<path d="M9.3631 36.6793C9.44733 36.6731 9.53189 36.6853 9.61113 36.715C9.69036 36.7447 9.76245 36.7913 9.82256 36.8516C9.88267 36.9119 9.92942 36.9846 9.95968 37.0647C9.98995 37.1449 10.003 37.2307 9.99805 37.3164C10.0052 37.4054 9.99375 37.4948 9.96431 37.5789C9.93488 37.6629 9.88818 37.7397 9.82733 37.804C9.76648 37.8682 9.69286 37.9186 9.61138 37.9517C9.5299 37.9849 9.44241 38 9.35475 37.996C9.26997 37.9983 9.1856 37.9833 9.10663 37.9519C9.02766 37.9204 8.95567 37.8732 8.89493 37.8131C8.83419 37.7529 8.78592 37.6809 8.75297 37.6015C8.72002 37.522 8.70306 37.4367 8.70309 37.3504C8.69826 37.261 8.71203 37.1715 8.74349 37.0879C8.77495 37.0043 8.82339 36.9283 8.88567 36.865C8.94795 36.8016 9.02266 36.7524 9.10492 36.7204C9.18719 36.6884 9.27516 36.6744 9.3631 36.6793Z" fill="#59D4E9"/>
<path d="M13.3486 32.5504C13.2644 32.5551 13.18 32.542 13.101 32.5119C13.0219 32.4818 12.9499 32.4353 12.8894 32.3754C12.829 32.3155 12.7814 32.2435 12.7497 32.164C12.718 32.0844 12.7029 31.999 12.7053 31.9132C12.703 31.8233 12.7188 31.7339 12.7515 31.6504C12.7843 31.5669 12.8335 31.4911 12.896 31.4275C12.9585 31.3639 13.0331 31.3139 13.1152 31.2806C13.1974 31.2473 13.2853 31.2313 13.3737 31.2336C13.4615 31.2319 13.5487 31.2492 13.6294 31.2844C13.7102 31.3196 13.7826 31.372 13.8419 31.4379C13.9012 31.5038 13.946 31.5818 13.9733 31.6667C14.0006 31.7516 14.0098 31.8414 14.0003 31.9302C14.0031 32.0161 13.9878 32.1016 13.9555 32.181C13.9231 32.2604 13.8745 32.3318 13.8128 32.3906C13.7511 32.4493 13.6777 32.4939 13.5977 32.5215C13.5176 32.549 13.4327 32.5589 13.3486 32.5504Z" fill="#AD0036"/>
<path d="M35.3707 7.38799C35.3811 7.50193 35.3663 7.6168 35.3272 7.72414C35.2882 7.83147 35.226 7.92852 35.1451 8.00813L27.8599 15.4074C27.7991 15.4756 27.7254 15.5305 27.643 15.5689C27.5607 15.6072 27.4716 15.6282 27.3811 15.6304C27.2906 15.6327 27.2006 15.6162 27.1165 15.5821C27.0324 15.5479 26.9561 15.4967 26.892 15.4316C26.828 15.3665 26.7777 15.2888 26.7441 15.2034C26.7104 15.1179 26.6943 15.0263 26.6965 14.9343C26.6987 14.8423 26.7193 14.7517 26.757 14.668C26.7947 14.5843 26.8488 14.5092 26.9159 14.4474L34.1927 7.03969C34.2806 6.92904 34.4029 6.85198 34.5395 6.82112C34.676 6.79026 34.8189 6.80742 34.9446 6.86979C35.0544 6.91015 35.1516 6.97938 35.2264 7.07041C35.3013 7.16144 35.3511 7.27102 35.3707 7.38799Z" fill="#AD0036"/>
<path d="M16.3397 18.6612C16.3451 18.7814 16.3177 18.9009 16.2607 19.0064C16.2036 19.1118 16.119 19.1992 16.0162 19.259C15.9134 19.3187 15.7964 19.3484 15.6781 19.3449C15.5597 19.3413 15.4446 19.3046 15.3455 19.2388C15.2685 19.1923 15.1982 19.1351 15.1366 19.0689C12.4019 16.2995 9.67273 13.5245 6.94914 10.7437C6.84847 10.6661 6.77149 10.5611 6.72713 10.4408C6.68277 10.3205 6.67284 10.1899 6.6985 10.0641C6.72663 9.93048 6.79472 9.80894 6.89343 9.71617C6.99214 9.6234 7.11666 9.56394 7.24991 9.54594C7.38716 9.53331 7.52535 9.5554 7.65217 9.61024C7.77899 9.66508 7.89049 9.75097 7.97675 9.86026L12.3462 14.3117L16.0306 18.041C16.1266 18.1122 16.2047 18.2055 16.2584 18.3133C16.3122 18.4211 16.34 18.5403 16.3397 18.6612Z" fill="#0B8AA0"/>
</svg>
