<svg width="39" height="38" viewBox="0 0 39 38" fill="none" xmlns="http://www.w3.org/2000/svg">
<path d="M14.2676 19C19.5068 19 23.7676 14.7393 23.7676 9.5C23.7676 4.26075 19.5068 0 14.2676 0C9.02833 0 4.76758 4.26075 4.76758 9.5C4.76758 14.7393 9.02833 19 14.2676 19ZM14.2676 3.16667C17.7604 3.16667 20.6009 6.00717 20.6009 9.5C20.6009 12.9928 17.7604 15.8333 14.2676 15.8333C10.7747 15.8333 7.93425 12.9928 7.93425 9.5C7.93425 6.00717 10.7747 3.16667 14.2676 3.16667ZM17.0384 25.6817C16.1391 25.4505 15.2065 25.3333 14.2676 25.3333C8.15591 25.3333 3.18425 30.305 3.18425 36.4167C3.18425 37.2907 2.47491 38 1.60091 38C0.726912 38 0.0175781 37.2907 0.0175781 36.4167C0.0175781 28.5602 6.41108 22.1667 14.2676 22.1667C15.4741 22.1667 16.6727 22.3171 17.8301 22.6163C18.6772 22.8348 19.1854 23.6978 18.9685 24.5448C18.7516 25.3919 17.8918 25.9002 17.04 25.6833L17.0384 25.6817ZM36.6258 18.8084C34.8303 17.0129 31.7017 17.0129 29.9077 18.8084L19.2883 29.4278C18.0929 30.6233 17.4327 32.2145 17.4327 33.9071V36.4183C17.4327 37.2923 18.142 38.0016 19.016 38.0016H21.5272C23.2197 38.0016 24.8094 37.3413 26.0048 36.1459L36.6243 25.5265C37.522 24.6288 38.016 23.4365 38.016 22.1667C38.016 20.8968 37.522 19.7046 36.6258 18.8084ZM34.3854 23.2861L23.7644 33.9055C23.1675 34.504 22.3727 34.8333 21.5256 34.8333H20.5977V33.9055C20.5977 33.06 20.9271 32.2652 21.5256 31.6667L32.1466 21.0473C32.7435 20.4488 33.7869 20.4488 34.3854 21.0473C34.6847 21.3449 34.8493 21.7423 34.8493 22.1667C34.8493 22.591 34.6847 22.9868 34.3854 23.2861Z" fill="#CB003F"/>
</svg>
